<svg width="23" height="23" viewBox="0 0 23 23" fill="none" xmlns="http://www.w3.org/2000/svg">
<path fill-rule="evenodd" clip-rule="evenodd" d="M13.7784 0.747524C13.1178 0.262436 12.3196 0.000854492 11.5 0.000854492C10.6804 0.000854492 9.88218 0.262436 9.22155 0.747524L7.88756 1.72502C7.66785 1.88649 7.4124 1.99252 7.14293 2.03409L5.50562 2.28565C4.69619 2.41008 3.94753 2.7894 3.36845 3.36848C2.78937 3.94756 2.41005 4.69622 2.28562 5.50565L2.03406 7.1444C1.99248 7.41387 1.88646 7.66932 1.72499 7.88902L0.747493 9.22302C0.262406 9.88365 0.000823975 10.6819 0.000823975 11.5015C0.000823975 12.3211 0.262406 13.1193 0.747493 13.7799L1.72499 15.1139C1.88743 15.3338 1.99237 15.5883 2.03406 15.8585L2.28562 17.4944C2.41005 18.3038 2.78937 19.0525 3.36845 19.6316C3.94753 20.2106 4.69619 20.59 5.50562 20.7144L7.14149 20.966C7.41031 21.0076 7.66618 21.1126 7.88612 21.275L9.22012 22.2525C9.88075 22.7376 10.679 22.9992 11.4986 22.9992C12.3182 22.9992 13.1164 22.7376 13.777 22.2525L15.111 21.275C15.3305 21.1132 15.586 21.0071 15.8556 20.966L17.4915 20.7144C18.3014 20.5902 19.0505 20.2108 19.6299 19.6314C20.2093 19.052 20.5887 18.3029 20.7129 17.493L20.9645 15.8571C21.0062 15.5883 21.1111 15.3324 21.2736 15.1125L22.2511 13.7785C22.7361 13.1178 22.9977 12.3196 22.9977 11.5C22.9977 10.6804 22.7361 9.88222 22.2511 9.22159L21.2736 7.88759C21.1121 7.66785 21.0061 7.41242 20.9645 7.14296L20.7144 5.50565C20.5899 4.69622 20.2106 3.94756 19.6315 3.36848C19.0525 2.7894 18.3038 2.41008 17.4944 2.28565L15.8585 2.03409C15.589 1.99246 15.3336 1.88644 15.1139 1.72502L13.7784 0.747524ZM10.4981 2.48402C11.0946 2.04559 11.9068 2.04559 12.5019 2.48402L13.8359 3.46152C14.3362 3.82952 14.9169 4.06959 15.5322 4.16446L17.1652 4.41459C17.8983 4.52671 18.4719 5.10171 18.584 5.8334L18.8341 7.46784C18.929 8.08165 19.1691 8.6624 19.5371 9.16409L20.5146 10.4966C20.953 11.0932 20.953 11.9054 20.5146 12.5005L19.5371 13.8345C19.1694 14.335 18.9282 14.9169 18.8341 15.5308L18.584 17.1638C18.5296 17.5206 18.3626 17.8507 18.1074 18.106C17.8521 18.3612 17.522 18.5282 17.1652 18.5826L15.5307 18.8327C14.9169 18.9268 14.3349 19.1679 13.8345 19.5356L12.5019 20.5131C11.9054 20.9516 11.0932 20.9516 10.4981 20.5131L9.16405 19.5356C8.66361 19.1679 8.08164 18.9268 7.46781 18.8327L5.83481 18.5826C5.47797 18.5282 5.14786 18.3612 4.89263 18.106C4.63739 17.8507 4.47039 17.5206 4.41599 17.1638L4.16587 15.5293C4.0718 14.9155 3.83063 14.3335 3.46293 13.8331L2.48543 12.5005C2.27219 12.21 2.15721 11.859 2.15721 11.4986C2.15721 11.1382 2.27219 10.7872 2.48543 10.4966L3.46293 9.16265C3.83093 8.6624 4.07099 8.08165 4.16587 7.4664L4.41599 5.8334C4.52812 5.10027 5.10312 4.52671 5.83481 4.41459L7.46924 4.16446C8.08308 4.07039 8.66505 3.82922 9.16549 3.46152L10.4981 2.48402ZM16.215 9.74627C16.4054 9.5419 16.5091 9.27158 16.5042 8.99227C16.4993 8.71296 16.3861 8.44647 16.1886 8.24894C15.991 8.05141 15.7246 7.93826 15.4452 7.93333C15.1659 7.92841 14.8956 8.03208 14.6912 8.22252L10.0625 12.8513L8.30874 11.0975C8.10437 10.9071 7.83405 10.8034 7.55474 10.8083C7.27543 10.8133 7.00894 10.9264 6.81141 11.1239C6.61388 11.3215 6.50073 11.588 6.4958 11.8673C6.49088 12.1466 6.59455 12.4169 6.78499 12.6213L9.30062 15.1369C9.50277 15.3388 9.77679 15.4522 10.0625 15.4522C10.3482 15.4522 10.6222 15.3388 10.8244 15.1369L16.215 9.74627Z" fill="url(#paint0_linear_27_335)"/>
<defs>
<linearGradient id="paint0_linear_27_335" x1="0.000823975" y1="0.000854492" x2="23.2781" y2="0.28821" gradientUnits="userSpaceOnUse">
<stop stop-color="#73E0A9"/>
<stop offset="1" stop-color="#5B68DF"/>
</linearGradient>
</defs>
</svg>
