<svg width="24" height="24" viewBox="0 0 24 24" fill="none" xmlns="http://www.w3.org/2000/svg">
<g opacity="0.5">
<path fill-rule="evenodd" clip-rule="evenodd" d="M1.25 10.5C1.25 5.39139 5.39139 1.25 10.5 1.25C15.6086 1.25 19.75 5.39139 19.75 10.5C19.75 15.6086 15.6086 19.75 10.5 19.75C5.39139 19.75 1.25 15.6086 1.25 10.5ZM10.5 2.75C6.21981 2.75 2.75 6.21981 2.75 10.5C2.75 14.7802 6.21981 18.25 10.5 18.25C14.7802 18.25 18.25 14.7802 18.25 10.5C18.25 6.21981 14.7802 2.75 10.5 2.75Z" fill="url(#paint0_linear_103_268)"/>
<path fill-rule="evenodd" clip-rule="evenodd" d="M7.14123 6.6412C8.00002 5.78247 9.18854 5.25 10.5 5.25C11.8114 5.25 13 5.78246 13.8587 6.64122C14.1516 6.93411 14.1516 7.40899 13.8587 7.70188C13.5658 7.99477 13.091 7.99477 12.7981 7.70188C12.2091 7.11294 11.3976 6.75 10.5 6.75C9.60234 6.75 8.79086 7.11293 8.20185 7.7019C7.90895 7.99478 7.43407 7.99476 7.14119 7.70186C6.84831 7.40896 6.84832 6.93408 7.14123 6.6412Z" fill="url(#paint1_linear_103_268)"/>
<path fill-rule="evenodd" clip-rule="evenodd" d="M16.0806 16.0806C16.3735 15.7877 16.8483 15.7877 17.1412 16.0806L21.3839 20.3232C21.6768 20.6161 21.6768 21.091 21.3839 21.3839C21.091 21.6768 20.6161 21.6768 20.3232 21.3839L16.0806 17.1412C15.7877 16.8483 15.7877 16.3735 16.0806 16.0806Z" fill="url(#paint2_linear_103_268)"/>
</g>
<defs>
<linearGradient id="paint0_linear_103_268" x1="1.25" y1="1.25" x2="19.9755" y2="1.48118" gradientUnits="userSpaceOnUse">
<stop stop-color="#73E0A9"/>
<stop offset="1" stop-color="#5B68DF"/>
</linearGradient>
<linearGradient id="paint1_linear_103_268" x1="6.92154" y1="5.25" x2="14.1588" y2="5.48936" gradientUnits="userSpaceOnUse">
<stop stop-color="#73E0A9"/>
<stop offset="1" stop-color="#5B68DF"/>
</linearGradient>
<linearGradient id="paint2_linear_103_268" x1="15.8609" y1="15.8609" x2="21.6736" y2="15.9327" gradientUnits="userSpaceOnUse">
<stop stop-color="#73E0A9"/>
<stop offset="1" stop-color="#5B68DF"/>
</linearGradient>
</defs>
</svg>
