<svg width="20" height="20" viewBox="0 0 20 20" fill="none" xmlns="http://www.w3.org/2000/svg">
<path fill-rule="evenodd" clip-rule="evenodd" d="M2.91668 6.04166C2.80162 6.04166 2.70834 6.13493 2.70834 6.24999V15.4167C2.70834 15.5317 2.80162 15.625 2.91668 15.625H17.0833C17.1984 15.625 17.2917 15.5317 17.2917 15.4167V6.24999C17.2917 6.13493 17.1984 6.04166 17.0833 6.04166H2.91668ZM1.45834 6.24999C1.45834 5.44457 2.11126 4.79166 2.91668 4.79166H17.0833C17.8888 4.79166 18.5417 5.44457 18.5417 6.24999V15.4167C18.5417 16.2221 17.8888 16.875 17.0833 16.875H2.91668C2.11126 16.875 1.45834 16.2221 1.45834 15.4167V6.24999Z" fill="white"/>
<path fill-rule="evenodd" clip-rule="evenodd" d="M9.79166 8.33334C9.79166 7.98817 10.0715 7.70834 10.4167 7.70834H17.9167C18.2618 7.70834 18.5417 7.98817 18.5417 8.33334V12.9167C18.5417 13.2619 18.2618 13.5417 17.9167 13.5417H10.4167C10.0715 13.5417 9.79166 13.2619 9.79166 12.9167V8.33334ZM11.0417 8.95834V12.2917H17.2917V8.95834H11.0417Z" fill="white"/>
<path fill-rule="evenodd" clip-rule="evenodd" d="M17.9167 6.875C18.2618 6.875 18.5417 7.15482 18.5417 7.5V13.75C18.5417 14.0952 18.2618 14.375 17.9167 14.375C17.5715 14.375 17.2917 14.0952 17.2917 13.75V7.5C17.2917 7.15482 17.5715 6.875 17.9167 6.875Z" fill="white"/>
<path fill-rule="evenodd" clip-rule="evenodd" d="M3.20924 3.2121C3.61115 2.67889 4.26645 2.29166 5.20834 2.29166H11.25C11.6742 2.29166 12.3455 2.42707 12.9234 2.90295C13.5279 3.40076 13.9583 4.21231 13.9583 5.41666C13.9583 5.76183 13.6785 6.04166 13.3333 6.04166C12.9882 6.04166 12.7083 5.76183 12.7083 5.41666C12.7083 4.53767 12.4097 4.09922 12.1287 3.86786C11.8212 3.61458 11.4508 3.54166 11.25 3.54166H5.20834C4.65024 3.54166 4.36803 3.75144 4.20744 3.96449C4.02416 4.20765 3.95834 4.51518 3.95834 4.7077V5.41666C3.95834 5.76183 3.67852 6.04166 3.33334 6.04166C2.98817 6.04166 2.70834 5.76183 2.70834 5.41666V4.7077C2.70834 4.30321 2.83002 3.71521 3.20924 3.2121Z" fill="white"/>
<path d="M13.9583 11.25C14.3035 11.25 14.5833 10.9702 14.5833 10.625C14.5833 10.2798 14.3035 10 13.9583 10C13.6132 10 13.3333 10.2798 13.3333 10.625C13.3333 10.9702 13.6132 11.25 13.9583 11.25Z" fill="white"/>
</svg>
