<svg width="24" height="24" viewBox="0 0 24 24" fill="none" xmlns="http://www.w3.org/2000/svg">
<path fill-rule="evenodd" clip-rule="evenodd" d="M2.05556 1.75C1.89068 1.75 1.75 1.88552 1.75 2.06137V21.9387C1.75 22.1145 1.89068 22.25 2.05556 22.25H21.9445C22.1093 22.25 22.25 22.1145 22.25 21.9387V2.06137C22.25 1.88552 22.1093 1.75 21.9445 1.75H2.05556ZM0.25 2.06137C0.25 1.06486 1.0545 0.25 2.05556 0.25H21.9445C22.9455 0.25 23.75 1.06486 23.75 2.06137V21.9387C23.75 22.9351 22.9455 23.75 21.9445 23.75H2.05556C1.0545 23.75 0.25 22.9351 0.25 21.9387V2.06137Z" fill="white"/>
<path fill-rule="evenodd" clip-rule="evenodd" d="M19.3307 8.9436H17.1537H16.8964C16.2214 8.9436 15.6742 9.4908 15.6742 10.1658V12.611H19.3307L18.7952 16.2764H15.6742V23.0001H11.6532V16.2764H8.33334V12.611H11.6103L11.6532 9.1318L11.6412 7.8848C11.6243 6.12395 13.0381 4.68283 14.7989 4.66592C14.8091 4.66582 14.8193 4.66577 14.8295 4.66577H19.3307V8.9436Z" fill="white"/>
</svg>
