<svg width="24" height="24" viewBox="0 0 24 24" fill="none" xmlns="http://www.w3.org/2000/svg">
<path fill-rule="evenodd" clip-rule="evenodd" d="M19.1683 4.6854C18.6902 4.0298 18.116 3.52093 17.4383 3.18877C16.6736 2.81395 15.8238 2.68708 14.9147 2.7784C13.4474 2.92581 12.4224 3.74408 11.837 4.94524C11.3369 5.97121 11.1625 7.2564 11.2222 8.63205C9.85763 9.16056 8.6536 8.87434 7.58648 8.19309C6.36566 7.41372 5.35047 6.12353 4.63638 4.95957C4.47915 4.70328 4.18404 4.56566 3.88664 4.60995C3.58923 4.65424 3.34703 4.87187 3.27129 5.16285C2.77156 7.0828 2.23621 9.56307 3.29717 12.3192C3.90481 13.8976 5.18221 15.2101 7.0175 16.2928C5.1934 17.1109 3.74775 17.3554 2.64042 17.1443C2.27838 17.0753 1.91986 17.2796 1.79463 17.6262C1.66941 17.9729 1.81459 18.3591 2.13713 18.5374C2.15992 18.55 2.18623 18.5647 2.21593 18.5812C2.81489 18.9146 4.79688 20.0177 7.25584 20.6952C9.81726 21.4008 13.0599 21.6897 15.8074 19.973C20.9024 16.7896 20.8682 11.3947 20.852 8.82575C20.8515 8.75728 20.8511 8.69081 20.8508 8.62646C20.9216 8.50341 21.0095 8.3759 21.1228 8.21419C21.1282 8.20653 21.1336 8.1988 21.1391 8.19101C21.2855 7.98228 21.4661 7.72491 21.632 7.4106C21.9907 6.7314 22.25 5.85076 22.25 4.47187C22.25 4.17392 22.0736 3.90423 21.8007 3.78478C21.5277 3.66533 21.21 3.71878 20.9911 3.92096C20.2883 4.5702 19.6965 4.76123 19.1683 4.6854ZM16.7781 4.53568C16.3002 4.30145 15.7377 4.20327 15.0647 4.27089C14.159 4.36187 13.5633 4.8269 13.1853 5.60245C12.7862 6.4213 12.6294 7.60343 12.7513 9.03993C12.7771 9.34468 12.6153 9.63459 12.3424 9.77261C10.2322 10.8397 8.31711 10.4391 6.77933 9.45742C5.82976 8.85121 5.01656 8.02233 4.35364 7.17926C4.10223 8.60746 4.0657 10.1402 4.69703 11.7803C5.24629 13.2071 6.60613 14.5138 8.98247 15.6339C9.23824 15.7544 9.40447 16.0086 9.41242 16.2912C9.42036 16.5738 9.26868 16.8369 9.02009 16.9717C7.72562 17.6732 6.50946 18.1787 5.38126 18.4595C6.05555 18.7402 6.82649 19.021 7.65427 19.249C10.0657 19.9134 12.7958 20.0859 15.0126 18.7009C19.3782 15.9733 19.3609 11.386 19.3512 8.78519C19.3507 8.66689 19.3503 8.55269 19.3503 8.44297C19.3503 8.33117 19.3753 8.22078 19.4235 8.11989C19.5653 7.82284 19.7426 7.56985 19.89 7.35968L19.8954 7.35196C20.0505 7.13075 20.1842 6.94003 20.3056 6.71021C20.4101 6.51228 20.5118 6.27251 20.5916 5.9588C19.9254 6.23035 19.2246 6.28601 18.5028 6.07039C18.3334 6.01978 18.1873 5.91094 18.0904 5.7631C17.6984 5.16553 17.2575 4.77066 16.7781 4.53568Z" fill="white"/>
</svg>
