<svg width="24" height="24" viewBox="0 0 24 24" fill="none" xmlns="http://www.w3.org/2000/svg">
<path d="M5.5317 5.2072L5.49436 4.45813L5.49436 4.45813L5.5317 5.2072ZM18.4684 5.20725L18.5057 4.45818L18.5057 4.45818L18.4684 5.20725ZM21.3087 7.9536L22.0561 7.89113L22.0561 7.89112L21.3087 7.9536ZM21.304 16.0261L22.0513 16.0892V16.0892L21.304 16.0261ZM18.5104 18.7675L18.4614 18.019L18.4614 18.019L18.5104 18.7675ZM5.4898 18.7675L5.44085 19.516L5.44086 19.516L5.4898 18.7675ZM2.69632 16.0275L3.44364 15.9641L2.69632 16.0275ZM2.6916 7.9522L1.94424 7.88937L1.94424 7.88938L2.6916 7.9522ZM5.56904 5.95627C8.33634 5.81833 10.4776 5.75 11.9989 5.75V4.25C10.4405 4.25 8.27027 4.31977 5.49436 4.45813L5.56904 5.95627ZM11.9989 5.75C13.5203 5.75 15.6624 5.81838 18.4311 5.95632L18.5057 4.45818C15.7284 4.31982 13.5575 4.25 11.9989 4.25V5.75ZM18.4311 5.95632C19.5569 6.01242 20.4674 6.89285 20.5613 8.01608L22.0561 7.89112C21.8996 6.01905 20.382 4.55168 18.5057 4.45818L18.4311 5.95632ZM20.5613 8.01607C20.6869 9.51839 20.7489 10.8329 20.7489 11.9619H22.2489C22.2489 10.7805 22.1841 9.42281 22.0561 7.89113L20.5613 8.01607ZM20.7489 11.9619C20.7489 13.1048 20.6854 14.4377 20.5567 15.963L22.0513 16.0892C22.1825 14.5343 22.2489 13.1578 22.2489 11.9619H20.7489ZM20.5567 15.963C20.4631 17.0723 19.5723 17.9464 18.4614 18.019L18.5593 19.5159C20.4108 19.3948 21.8953 17.938 22.0513 16.0892L20.5567 15.963ZM18.4614 18.019C16.1038 18.1732 13.9499 18.25 11.9989 18.25V19.75C13.9884 19.75 16.1755 19.6718 18.5593 19.5159L18.4614 18.019ZM11.9989 18.25C10.0481 18.25 7.89504 18.1732 5.53874 18.0191L5.44086 19.516C7.82337 19.6718 10.0097 19.75 11.9989 19.75V18.25ZM5.53875 18.0191C4.42826 17.9465 3.53769 17.0729 3.44364 15.9641L1.94901 16.0909C2.10577 17.939 3.59003 19.3949 5.44085 19.516L5.53875 18.0191ZM3.44364 15.9641C3.31325 14.4269 3.2489 13.0938 3.2489 11.9619H1.7489C1.7489 13.1476 1.81617 14.5249 1.94901 16.0909L3.44364 15.9641ZM3.2489 11.9619C3.2489 10.8437 3.31171 9.52894 3.43897 8.01502L1.94424 7.88938C1.81456 9.43206 1.7489 10.7904 1.7489 11.9619H3.2489ZM3.43897 8.01502C3.53335 6.89224 4.44371 6.01237 5.56904 5.95627L5.49436 4.45813C3.61879 4.55163 2.10154 6.01806 1.94424 7.88937L3.43897 8.01502Z" fill="white"/>
<path d="M11.1649 14.5605L10.7514 13.9348L10.7512 13.9349L11.1649 14.5605ZM14.4637 12.3803L14.8772 13.006L14.8772 13.006L14.4637 12.3803ZM14.5849 11.7864L15.2106 11.3729L15.2106 11.3729L14.5849 11.7864ZM14.4665 11.6671L14.048 12.2895L14.0482 12.2896L14.4665 11.6671ZM11.1677 9.44893L11.5862 8.82655L11.5862 8.82653L11.1677 9.44893ZM10.5729 9.56548L9.95052 9.14697L9.95036 9.14722L10.5729 9.56548ZM9.75 9.80458V14.203H11.25V9.80458H9.75ZM9.75 14.203C9.75 14.8539 10.2777 15.3816 10.9285 15.3816V13.8816C11.1061 13.8816 11.25 14.0255 11.25 14.203H9.75ZM10.9285 15.3816C11.1596 15.3816 11.3857 15.3137 11.5786 15.1861L10.7512 13.9349C10.8039 13.9001 10.8656 13.8816 10.9285 13.8816V15.3816ZM11.5784 15.1862L14.8772 13.006L14.0502 11.7546L10.7514 13.9348L11.5784 15.1862ZM14.8772 13.006C15.4203 12.647 15.5694 11.9158 15.2106 11.3729L13.9592 12.2C13.8614 12.0519 13.902 11.8525 14.0502 11.7546L14.8772 13.006ZM15.2106 11.3729C15.1249 11.2432 15.0142 11.1316 14.8848 11.0446L14.0482 12.2896C14.0127 12.2657 13.9825 12.2352 13.9592 12.2L15.2106 11.3729ZM14.885 11.0447L11.5862 8.82655L10.7492 10.0713L14.048 12.2895L14.885 11.0447ZM11.5862 8.82653C11.046 8.46336 10.3137 8.60683 9.95052 9.14697L11.1953 9.98399C11.0963 10.1312 10.8966 10.1704 10.7492 10.0713L11.5862 8.82653ZM9.95036 9.14722C9.81989 9.34141 9.75 9.57024 9.75 9.80458H11.25C11.25 9.86862 11.2309 9.93094 11.1954 9.98374L9.95036 9.14722Z" fill="white"/>
</svg>
